<?xml version="1.0" encoding="iso-8859-1"?>
<!-- Generator: Adobe Illustrator 19.0.0, SVG Export Plug-In . SVG Version: 6.00 Build 0)  -->
<svg version="1.1" id="Capa_1" xmlns="http://www.w3.org/2000/svg" xmlns:xlink="http://www.w3.org/1999/xlink" x="0px" y="0px"
	 viewBox="0 0 512 512" style="enable-background:new 0 0 512 512;" xml:space="preserve">
<circle style="fill:#FFC477;" cx="256.002" cy="255.982" r="255.982"/>
<path style="fill:#FF3F62;" d="M255.998,486.212c-30.061,0-57.25-15.762-84.209-26.929c-26.96-11.167-57.331-19.248-78.587-40.503
	c-21.256-21.256-29.337-51.628-40.504-78.588c-11.167-26.96-26.929-54.15-26.929-84.209s15.762-57.25,26.929-84.209
	c11.167-26.96,19.248-57.332,40.504-78.587s51.628-29.337,78.587-40.503c26.96-11.168,54.15-26.93,84.209-26.93
	s57.25,15.762,84.21,26.929c26.96,11.167,57.331,19.248,78.587,40.503c21.256,21.256,29.337,51.628,40.504,78.587
	c11.167,26.96,26.929,54.15,26.929,84.209s-15.762,57.25-26.929,84.209c-11.167,26.96-19.248,57.331-40.504,78.587
	c-21.256,21.255-51.628,29.337-78.587,40.503C313.249,470.45,286.059,486.212,255.998,486.212z"/>
<path style="fill:#FFE477;" d="M255.998,455.309c-17.174,0-35.371-8.17-54.636-16.819c-5.756-2.585-11.709-5.257-17.748-7.758
	c-6.04-2.502-12.139-4.822-18.037-7.065c-19.738-7.506-38.381-14.597-50.524-26.74c-12.143-12.143-19.232-30.786-26.74-50.524
	c-2.244-5.898-4.563-11.998-7.065-18.038c-2.501-6.039-5.173-11.992-7.758-17.748c-8.649-19.265-16.819-37.462-16.819-54.636
	s8.17-35.371,16.819-54.636c2.585-5.756,5.257-11.709,7.758-17.748c2.502-6.04,4.822-12.139,7.065-18.037
	c7.506-19.738,14.597-38.381,26.74-50.524s30.786-19.232,50.524-26.74c5.898-2.244,11.998-4.563,18.038-7.065
	c6.038-2.501,11.992-5.173,17.748-7.758c19.264-8.65,37.461-16.82,54.635-16.82c17.174,0,35.37,8.17,54.635,16.819
	c5.756,2.585,11.708,5.258,17.748,7.759c6.04,2.502,12.139,4.821,18.037,7.065c19.738,7.506,38.381,14.597,50.525,26.74
	s19.234,30.787,26.741,50.526c2.244,5.898,4.563,11.997,7.064,18.036c2.501,6.04,5.173,11.994,7.759,17.751
	c8.649,19.264,16.817,37.459,16.817,54.632c0,17.173-8.169,35.368-16.817,54.632c-2.586,5.757-5.258,11.712-7.76,17.753
	c-2.501,6.037-4.821,12.137-7.063,18.034c-7.506,19.739-14.597,38.382-26.741,50.526c-12.144,12.144-30.787,19.233-50.525,26.74
	c-5.898,2.244-11.997,4.562-18.037,7.065c-6.04,2.501-11.993,5.174-17.748,7.759C291.368,447.139,273.172,455.309,255.998,455.309z"
	/>
<path style="fill:#FFDA44;" d="M56.672,255.982H225.21c1.669,0,1.773-2.465,0.11-2.606l-166.4-14.136
	C57.508,244.925,56.672,250.506,56.672,255.982z"/>
<path style="fill:#FFB655;" d="M24.247,236.294c-4.895-28.883,2.921-73.962,11.774-111.264
	C13.163,163.346,0.016,208.126,0.016,255.982h25.753c0-6.59,0.758-13.042,2.059-19.385L24.247,236.294z"/>
<path style="fill:#FF0C38;" d="M27.828,236.598c-1.301,6.342-2.059,12.794-2.059,19.385h30.903c0-5.476,0.836-11.057,2.249-16.742
	L27.828,236.598z"/>
<path style="fill:#FFDA44;" d="M115.009,115.086l119.042,119.307c1.178,1.18,2.998-0.486,1.923-1.763L128.45,104.852
	C123.428,107.869,118.887,111.218,115.009,115.086z"/>
<path style="fill:#FFB655;" d="M106.044,78.227c16.989-23.867,54.421-50.173,87.079-70.253
	C149.856,18.855,108.871,41.178,74.993,74.98l18.19,18.23c4.665-4.655,9.768-8.676,15.176-12.234L106.044,78.227z"/>
<path style="fill:#FF0C38;" d="M108.358,80.976c-5.408,3.559-10.511,7.58-15.176,12.234l21.827,21.876
	c3.876-3.868,8.418-7.218,13.44-10.234L108.358,80.976z"/>
<path style="fill:#FFDA44;" d="M256.667,56.496l-1.123,168.534c-0.011,1.669,2.453,1.789,2.605,0.128l15.245-166.302
	C267.718,57.406,262.143,56.532,256.667,56.496z"/>
<path style="fill:#FFB655;" d="M279.756,1.09c-4.474-0.737-14.452-1.012-23.426-1.071l0.543,26.606
	c6.07,0.04,12.018,0.723,17.868,1.88c0.796,0.158,1.549-0.403,1.61-1.212C276.706,22.534,277.914,7.844,279.756,1.09z"/>
<path style="fill:#FF0C38;" d="M276.242,27.944c-6.333-1.343-12.781-2.144-19.37-2.188l-0.206,30.902
	c5.476,0.036,11.051,0.911,16.727,2.36L276.242,27.944z"/>
<path style="fill:#FFDA44;" d="M455.423,255.982H286.884c-1.669,0-1.773-2.465-0.11-2.606l166.401-14.136
	C454.586,244.925,455.423,250.506,455.423,255.982z"/>
<path style="fill:#FFB655;" d="M487.743,236.294c4.895-28.883-2.921-73.962-11.774-111.264
	c22.858,38.315,36.004,83.095,36.004,130.953h-25.753c0-6.59-0.758-13.042-2.059-19.385L487.743,236.294z"/>
<path style="fill:#FF0C38;" d="M484.129,236.598c1.301,6.342,2.059,12.794,2.059,19.385h-30.903c0-5.476-0.836-11.057-2.249-16.742
	L484.129,236.598z"/>
<path style="fill:#FFDA44;" d="M397.084,115.086L278.043,234.393c-1.178,1.18-2.998-0.486-1.923-1.763l107.524-127.779
	C388.666,107.869,393.208,111.218,397.084,115.086z"/>
<path style="fill:#FFB655;" d="M406.051,78.227C389.062,54.36,351.63,28.054,318.971,7.974
	c43.268,10.881,84.254,33.204,118.131,67.006l-18.19,18.23c-4.665-4.655-9.768-8.676-15.176-12.234L406.051,78.227z"/>
<path style="fill:#FF0C38;" d="M403.736,80.976c5.408,3.559,10.511,7.58,15.176,12.234l-21.827,21.876
	c-3.876-3.868-8.418-7.218-13.44-10.234L403.736,80.976z"/>
<path style="fill:#FFDA44;" d="M115.009,396.931l119.042-119.307c1.178-1.181,2.998,0.486,1.923,1.763L128.45,407.166
	C123.428,404.149,118.887,400.8,115.009,396.931z"/>
<path style="fill:#FFB655;" d="M106.044,433.792c16.989,23.867,54.421,50.173,87.079,70.253
	c-43.268-10.881-84.254-33.204-118.131-67.006l18.19-18.23c4.665,4.655,9.768,8.676,15.176,12.234L106.044,433.792z"/>
<path style="fill:#FF0C38;" d="M108.358,431.043c-5.408-3.559-10.511-7.58-15.176-12.234l21.827-21.876
	c3.876,3.868,8.418,7.218,13.44,10.234L108.358,431.043z"/>
<path style="fill:#FFDA44;" d="M256.667,455.522l-1.123-168.534c-0.011-1.669,2.453-1.789,2.605-0.128l15.245,166.302
	C267.718,454.612,262.143,455.486,256.667,455.522z"/>
<path style="fill:#FFB655;" d="M279.756,510.929c-4.474,0.737-14.452,1.012-23.426,1.071l0.543-26.606
	c6.07-0.04,12.018-0.723,17.868-1.88c0.796-0.158,1.549,0.403,1.61,1.212C276.706,489.484,277.914,504.173,279.756,510.929z"/>
<path style="fill:#FF0C38;" d="M276.242,484.075c-6.333,1.343-12.781,2.144-19.37,2.188l-0.206-30.902
	c5.476-0.036,11.051-0.911,16.727-2.36L276.242,484.075z"/>
<path style="fill:#FFDA44;" d="M397.084,396.931L278.043,277.624c-1.178-1.181-2.998,0.486-1.923,1.763l107.524,127.779
	C388.666,404.149,393.208,400.8,397.084,396.931z"/>
<path style="fill:#FFB655;" d="M406.051,433.792c-16.989,23.867-54.421,50.173-87.079,70.253
	c43.268-10.881,84.254-33.204,118.131-67.006l-18.19-18.23c-4.665,4.655-9.768,8.676-15.176,12.234L406.051,433.792z"/>
<path style="fill:#FF0C38;" d="M403.736,431.043c5.408-3.559,10.511-7.58,15.176-12.234l-21.827-21.876
	c-3.876,3.868-8.418,7.218-13.44,10.234L403.736,431.043z"/>
<circle style="fill:#C70024;" cx="378.966" cy="234.608" r="38.046"/>
<g>
	<circle style="fill:#FFA5B5;" cx="379.347" cy="220.495" r="7.726"/>
	<circle style="fill:#FFA5B5;" cx="365.204" cy="244.61" r="7.726"/>
	<circle style="fill:#FFA5B5;" cx="394.799" cy="244.61" r="7.726"/>
</g>
<circle style="fill:#C70024;" cx="236.625" cy="116.918" r="38.046"/>
<g>
	<circle style="fill:#FFA5B5;" cx="248.78" cy="107.028" r="7.726"/>
	<circle style="fill:#FFA5B5;" cx="221.38" cy="112.529" r="7.726"/>
	<circle style="fill:#FFA5B5;" cx="241.075" cy="134.615" r="7.726"/>
</g>
<circle style="fill:#C70024;" cx="253.931" cy="400.095" r="38.046"/>
<g>
	<circle style="fill:#FFA5B5;" cx="266.097" cy="390.216" r="7.726"/>
	<circle style="fill:#FFA5B5;" cx="238.685" cy="395.707" r="7.726"/>
	<circle style="fill:#FFA5B5;" cx="258.391" cy="417.792" r="7.726"/>
</g>
<circle style="fill:#C70024;" cx="112.456" cy="267.582" r="38.046"/>
<g>
	<circle style="fill:#FFA5B5;" cx="124.611" cy="257.692" r="7.726"/>
	<circle style="fill:#FFA5B5;" cx="97.21" cy="263.193" r="7.726"/>
	<circle style="fill:#FFA5B5;" cx="116.916" cy="285.269" r="7.726"/>
</g>
<path style="fill:#91CC04;" d="M372.929,340.207c-13.016,0-23.605-10.589-23.605-23.604c0-13.015,10.588-23.605,23.605-23.605
	c13.015,0,23.604,10.589,23.604,23.605C396.533,329.619,385.944,340.207,372.929,340.207z M372.929,308.45
	c-4.495,0-8.153,3.657-8.153,8.153c0,4.495,3.658,8.152,8.153,8.152s8.152-3.657,8.152-8.152S377.425,308.45,372.929,308.45z"/>
<g>
	<circle style="fill:#FFF5CC;" cx="291.458" cy="331.078" r="7.726"/>
	<circle style="fill:#FFF5CC;" cx="200.643" cy="278.645" r="7.726"/>
	<circle style="fill:#FFF5CC;" cx="334.197" cy="134.615" r="7.726"/>
	<circle style="fill:#FFF5CC;" cx="108.181" cy="177.303" r="7.726"/>
	<circle style="fill:#FFF5CC;" cx="174.602" cy="134.615" r="7.726"/>
	<circle style="fill:#FFF5CC;" cx="346.497" cy="382.49" r="7.726"/>
	<circle style="fill:#FFF5CC;" cx="221.38" cy="338.443" r="7.726"/>
</g>
<path style="fill:#91CC04;" d="M156.336,223.181c-13.016,0-23.605-10.589-23.605-23.604c0-13.015,10.589-23.605,23.605-23.605
	c13.015,0,23.604,10.589,23.604,23.605C179.94,212.592,169.351,223.181,156.336,223.181z M156.336,191.424
	c-4.495,0-8.153,3.657-8.153,8.153c0,4.495,3.658,8.152,8.153,8.152s8.152-3.657,8.152-8.152
	C164.489,195.081,160.832,191.424,156.336,191.424z"/>
<g>
	<path style="fill:#47821C;" d="M174.601,409.26c-13.016,0-23.605-10.589-23.605-23.604c0-13.015,10.589-23.605,23.605-23.605
		c13.015,0,23.604,10.589,23.604,23.605C198.205,398.67,187.616,409.26,174.601,409.26z M174.601,377.503
		c-4.495,0-8.153,3.657-8.153,8.153c0,4.495,3.658,8.152,8.153,8.152s8.152-3.657,8.152-8.152
		C182.753,381.159,179.097,377.503,174.601,377.503z"/>
	<path style="fill:#47821C;" d="M302.196,198.188c-13.016,0-23.605-10.589-23.605-23.604s10.589-23.605,23.605-23.605
		c13.015,0,23.604,10.589,23.604,23.605C325.8,187.6,315.211,198.188,302.196,198.188z M302.196,166.432
		c-4.495,0-8.153,3.657-8.153,8.153c0,4.495,3.658,8.152,8.153,8.152s8.152-3.657,8.152-8.152
		C310.348,170.089,306.691,166.432,302.196,166.432z"/>
</g>
<circle style="fill:#FFF5CC;" cx="325.802" cy="285.269" r="7.726"/>
<g>
</g>
<g>
</g>
<g>
</g>
<g>
</g>
<g>
</g>
<g>
</g>
<g>
</g>
<g>
</g>
<g>
</g>
<g>
</g>
<g>
</g>
<g>
</g>
<g>
</g>
<g>
</g>
<g>
</g>
</svg>
